<?xml version="1.0" encoding="UTF-8" standalone="no"?>
<!-- Created with Inkscape (http://www.inkscape.org/) -->

<svg
   xmlns:dc="http://purl.org/dc/elements/1.1/"
   xmlns:cc="http://creativecommons.org/ns#"
   xmlns:rdf="http://www.w3.org/1999/02/22-rdf-syntax-ns#"
   xmlns:svg="http://www.w3.org/2000/svg"
   xmlns="http://www.w3.org/2000/svg"
   xmlns:sodipodi="http://sodipodi.sourceforge.net/DTD/sodipodi-0.dtd"
   xmlns:inkscape="http://www.inkscape.org/namespaces/inkscape"
   width="150mm"
   height="100mm"
   viewBox="0 0 531.49606 354.33071"
   id="svg4695"
   version="1.1"
   inkscape:version="0.91 r13725"
   sodipodi:docname="plane.svg">
  <defs
     id="defs4697">
    <filter
       inkscape:collect="always"
       style="color-interpolation-filters:sRGB"
       id="filter4438"
       x="-0.030937815"
       width="1.0618756"
       y="-0.10702325"
       height="1.2140465">
      <feGaussianBlur
         inkscape:collect="always"
         stdDeviation="1.7864072"
         id="feGaussianBlur4440" />
    </filter>
    <filter
       inkscape:collect="always"
       style="color-interpolation-filters:sRGB"
       id="filter4468"
       x="-0.031783786"
       width="1.0635676"
       y="-0.09799999"
       height="1.196">
      <feGaussianBlur
         inkscape:collect="always"
         stdDeviation="1.8260016"
         id="feGaussianBlur4470" />
    </filter>
    <filter
       inkscape:collect="always"
       style="color-interpolation-filters:sRGB"
       id="filter4510"
       x="-0.16752937"
       width="1.3350587"
       y="-0.067275599"
       height="1.1345512">
      <feGaussianBlur
         inkscape:collect="always"
         stdDeviation="0.8291538"
         id="feGaussianBlur4512" />
    </filter>
    <filter
       inkscape:collect="always"
       style="color-interpolation-filters:sRGB"
       id="filter4640"
       x="-0.52440006"
       width="2.0488002"
       y="-0.14566666"
       height="1.2913333">
      <feGaussianBlur
         inkscape:collect="always"
         stdDeviation="1.7811664"
         id="feGaussianBlur4642" />
    </filter>
    <filter
       inkscape:collect="always"
       style="color-interpolation-filters:sRGB"
       id="filter4718"
       x="-0.13550559"
       width="1.2710112"
       y="-0.26800016"
       height="1.5360003">
      <feGaussianBlur
         inkscape:collect="always"
         stdDeviation="1.1703645"
         id="feGaussianBlur4720" />
    </filter>
    <filter
       inkscape:collect="always"
       style="color-interpolation-filters:sRGB"
       id="filter4752"
       x="-0.025059739"
       width="1.0501195"
       y="-0.56752974"
       height="2.1350594">
      <feGaussianBlur
         inkscape:collect="always"
         stdDeviation="0.9362916"
         id="feGaussianBlur4754" />
    </filter>
    <filter
       inkscape:collect="always"
       style="color-interpolation-filters:sRGB"
       id="filter4878"
       x="-0.16559993"
       width="1.3311999"
       y="-0.65057254"
       height="2.3011451">
      <feGaussianBlur
         inkscape:collect="always"
         stdDeviation="0.88388685"
         id="feGaussianBlur4880" />
    </filter>
    <filter
       inkscape:collect="always"
       style="color-interpolation-filters:sRGB"
       id="filter4960"
       x="-0.088787235"
       width="1.1775745"
       y="-0.64199984"
       height="2.2839997">
      <feGaussianBlur
         inkscape:collect="always"
         stdDeviation="0.809939"
         id="feGaussianBlur4962" />
    </filter>
    <filter
       inkscape:collect="always"
       style="color-interpolation-filters:sRGB"
       id="filter5046"
       x="-0.14976013"
       width="1.2995203"
       y="-0.26742816"
       height="1.5348563">
      <feGaussianBlur
         inkscape:collect="always"
         stdDeviation="0.3633368"
         id="feGaussianBlur5048" />
    </filter>
  </defs>
  <sodipodi:namedview
     id="base"
     pagecolor="#ffffff"
     bordercolor="#666666"
     borderopacity="1.0"
     inkscape:pageopacity="0.0"
     inkscape:pageshadow="2"
     inkscape:zoom="0.35"
     inkscape:cx="611.53853"
     inkscape:cy="623.35525"
     inkscape:document-units="px"
     inkscape:current-layer="layer1"
     showgrid="false"
     inkscape:window-width="1366"
     inkscape:window-height="705"
     inkscape:window-x="-8"
     inkscape:window-y="-8"
     inkscape:window-maximized="1" />
  <metadata
     id="metadata4700">
    <rdf:RDF>
      <cc:Work
         rdf:about="">
        <dc:format>image/svg+xml</dc:format>
        <dc:type
           rdf:resource="http://purl.org/dc/dcmitype/StillImage" />
        <dc:title></dc:title>
      </cc:Work>
    </rdf:RDF>
  </metadata>
  <g
     inkscape:label="1. réteg"
     inkscape:groupmode="layer"
     id="layer1"
     transform="translate(0,-698.0315)">
    <g
       id="g4421"
       transform="matrix(2.5547267,1.338852,1.3002197,-2.6306335,-1677.0592,2066.2268)">
      <path
         sodipodi:nodetypes="ssssssssssssssssssssssssss"
         inkscape:connector-curvature="0"
         id="path5672"
         d="m 339.72079,642.94276 c -0.24281,-0.73868 -0.46311,-1.53559 -0.3547,-2.30556 0.23602,-1.67632 0.81384,-3.54427 2.12821,-4.61114 2.26029,-1.83467 5.60351,-1.8476 8.51285,-1.95086 5.38114,-0.191 10.70601,1.31168 15.96161,2.48292 10.70018,2.38459 21.04501,6.15044 31.56851,9.22226 4.25616,1.24237 8.50528,2.50915 12.76927,3.72437 5.72442,1.63144 11.49853,3.08883 17.20307,4.78848 6.36086,1.8952 12.72155,3.81026 18.97657,6.02994 5.02809,1.78428 11.35047,3.72438 14.89749,5.85259 3.54703,2.12821 2.38795,1.50239 3.54703,2.30557 3.68331,2.55236 7.32046,5.17981 10.81842,7.9808 3.23844,2.59317 6.47509,5.2155 9.39961,8.15815 1.15261,1.15976 2.85937,2.12353 3.19232,3.72437 0.16373,0.78723 -0.0885,1.79462 -0.70941,2.30557 -1.74417,1.43538 -4.48175,0.78502 -6.73934,0.7094 -7.25602,-0.24304 -14.32607,-2.37405 -21.45948,-3.72437 -6.93751,-1.31324 -13.86271,-2.70153 -20.75009,-4.25642 -8.67137,-1.95764 -17.26136,-4.25974 -25.89327,-6.38465 -6.97515,-1.71707 -13.94959,-3.43708 -20.92743,-5.14318 -8.74679,-2.13861 -17.59465,-3.89465 -26.24797,-6.38464 -2.87448,-0.82713 -5.87686,-1.42402 -8.51286,-2.83763 -2.70962,-1.45309 -5.00928,-3.59285 -7.27139,-5.67523 -1.53898,-1.41671 -2.95117,-2.97656 -4.25644,-4.61112 -1.43252,-1.7939 -2.7167,-3.70904 -3.90172,-5.67524 -0.72342,-1.20031 -1.51323,-2.393 -1.95086,-3.72438 z"
         style="fill:#b3b3b3;fill-rule:evenodd;stroke:none;stroke-width:0.57300985px;stroke-linecap:butt;stroke-linejoin:miter;stroke-opacity:1" />
      <path
         inkscape:connector-curvature="0"
         id="path4416"
         d="m 349.12965,655.63704 2.79489,-1.86327 11.41252,1.63036 20.72884,4.42526 29.11355,9.54924 31.67553,8.15179 29.81228,8.85052 8.15179,3.95944 3.02781,-0.93163 -7.68598,-5.12398 -10.48087,-4.89107 -18.86559,-5.12399 -29.34644,-8.61761 -28.41483,-7.68598 -21.89338,-5.8227 -16.30359,-1.86328 -5.5898,1.63036 z"
         style="fill:#cccccc;fill-rule:evenodd;stroke:none;stroke-width:0.80000001px;stroke-linecap:butt;stroke-linejoin:miter;stroke-opacity:1;filter:url(#filter4438)" />
      <path
         sodipodi:nodetypes="cssccsscc"
         inkscape:connector-curvature="0"
         id="path5674"
         d="m 344.98576,651.4476 c 0,0 0.93387,-2.19223 1.65172,-2.65225 1.6721,-1.07153 3.89868,-0.94234 5.88462,-0.93163 2.56738,0.0138 7.59407,1.28633 7.59407,1.28633 l -2.12821,4.43378 c 0,0 -1.8848,-0.39689 -2.83762,-0.53205 -1.82294,-0.25859 -3.76486,-1.15381 -5.49789,-0.53206 -0.94432,0.33879 -2.12821,2.12822 -2.12821,2.12822 z"
         style="opacity:0.7;fill:#aaeeff;fill-rule:evenodd;stroke:none;stroke-width:0.57300985px;stroke-linecap:butt;stroke-linejoin:miter;stroke-opacity:1" />
      <path
         inkscape:connector-curvature="0"
         id="path5678"
         d="m 381.75301,655.17999 0.35471,-1.95086 11.70517,2.83761 -0.88675,2.12822 z"
         style="opacity:0.7;fill:#aaeeff;fill-rule:evenodd;stroke:none;stroke-width:0.57300985px;stroke-linecap:butt;stroke-linejoin:miter;stroke-opacity:1" />
      <path
         inkscape:connector-curvature="0"
         id="path5680"
         d="m 396.47316,658.72702 0.7094,-2.12822 10.64107,3.19232 -0.88676,2.48292 z"
         style="opacity:0.7;fill:#aaeeff;fill-rule:evenodd;stroke:none;stroke-width:0.57300985px;stroke-linecap:butt;stroke-linejoin:miter;stroke-opacity:1" />
      <path
         inkscape:connector-curvature="0"
         id="path5682"
         d="m 410.8386,663.1608 0.17735,-2.12822 10.28636,3.01497 -0.7094,1.77351 z"
         style="opacity:0.7;fill:#aaeeff;fill-rule:evenodd;stroke:none;stroke-width:0.57300985px;stroke-linecap:butt;stroke-linejoin:miter;stroke-opacity:1" />
      <path
         inkscape:connector-curvature="0"
         id="path5684"
         d="m 424.31728,666.88517 1.24146,-2.30557 8.86756,3.19232 -0.7094,1.41881 z"
         style="opacity:0.7;fill:#aaeeff;fill-rule:evenodd;stroke:none;stroke-width:0.57300985px;stroke-linecap:butt;stroke-linejoin:miter;stroke-opacity:1" />
      <path
         inkscape:connector-curvature="0"
         id="path5686"
         d="m 436.73187,670.07749 1.0641,-2.30557 8.33551,2.66026 -0.3547,1.77352 z"
         style="opacity:0.7;fill:#aaeeff;fill-rule:evenodd;stroke:none;stroke-width:0.57300985px;stroke-linecap:butt;stroke-linejoin:miter;stroke-opacity:1" />
      <path
         inkscape:connector-curvature="0"
         id="path5688"
         d="m 448.08234,672.91511 0.88675,-1.77351 8.51286,2.48291 -0.70941,1.59616 z"
         style="opacity:0.7;fill:#aaeeff;fill-rule:evenodd;stroke:none;stroke-width:0.57300985px;stroke-linecap:butt;stroke-linejoin:miter;stroke-opacity:1" />
      <path
         inkscape:connector-curvature="0"
         id="path5690"
         d="m 459.07811,675.93007 0.53206,-1.59615 7.98079,2.30556 -0.53205,1.77351 z"
         style="opacity:0.7;fill:#aaeeff;fill-rule:evenodd;stroke:none;stroke-width:0.57300985px;stroke-linecap:butt;stroke-linejoin:miter;stroke-opacity:1" />
      <path
         sodipodi:nodetypes="cccccsssscc"
         inkscape:connector-curvature="0"
         id="path5692"
         d="m 378.91539,668.83603 -11.35047,9.22226 -3.01497,2.12821 c 0,0 -1.59616,1.95086 0,2.12822 l 1.59616,0.17734 c 0,0 3.90173,0 5.67523,-0.7094 1.77352,-0.7094 0.95216,-0.33876 1.41881,-0.53205 1.97982,-0.82007 3.88654,-1.80772 5.85259,-2.66027 2.69936,-1.17054 5.44978,-2.22017 8.15816,-3.36967 2.31519,-0.98262 6.91669,-3.01497 6.91669,-3.01497 z"
         style="fill:#b3b3b3;fill-rule:evenodd;stroke:none;stroke-width:0.57300985px;stroke-linecap:butt;stroke-linejoin:miter;stroke-opacity:1" />
      <path
         sodipodi:nodetypes="csssssssssc"
         inkscape:connector-curvature="0"
         id="path5694"
         d="m 413.85357,653.58383 c 0,0 31.92817,0.80073 47.88481,1.41881 12.36033,0.47878 24.71237,1.15287 37.06639,1.77352 7.86353,0.39506 15.85869,0.9048 23.5877,1.24145 1.9985,0.087 3.17134,0.65003 5.67524,1.95086 1.36194,0.70755 -2.8993,1.2119 -4.43378,1.24146 -11.62989,0.22404 -23.40751,-0.91791 -35.11553,-1.24146 -14.83566,-0.40999 -29.67544,-0.66691 -44.51513,-0.88675 -6.08868,-0.0902 -12.20677,0.41558 -18.26718,-0.17736 -1.91557,-0.18742 -3.89741,-0.32663 -5.67524,-1.0641 -2.31735,-0.96127 -6.20728,-4.25643 -6.20728,-4.25643 z"
         style="fill:#b3b3b3;fill-rule:evenodd;stroke:none;stroke-width:0.57300985px;stroke-linecap:butt;stroke-linejoin:miter;stroke-opacity:1" />
      <path
         sodipodi:nodetypes="cssccc"
         inkscape:connector-curvature="0"
         id="path5700"
         d="m 460.85162,687.75557 c 0,0 3.01602,1.84522 4.07908,3.072 7.89822,9.11462 5.8402,25.26858 15.2522,32.80996 1.51121,1.21086 5.67524,1.24146 5.67524,1.24146 l -4.78849,-34.00078 z"
         style="fill:#b3b3b3;fill-rule:evenodd;stroke:none;stroke-width:0.57300985px;stroke-linecap:butt;stroke-linejoin:miter;stroke-opacity:1" />
      <path
         sodipodi:nodetypes="cscscc"
         inkscape:connector-curvature="0"
         id="path5702"
         d="m 477.52263,682.31472 c 0,0 21.55925,0.44725 31.74586,3.54701 1.59365,0.48494 4.43378,2.30557 4.43378,2.30557 0,0 -19.51274,0.18771 -29.0856,-1.4188 -1.45754,-0.2446 -4.25642,-1.24147 -4.25642,-1.24147 z"
         style="fill:#b3b3b3;fill-rule:evenodd;stroke:none;stroke-width:0.57300985px;stroke-linecap:butt;stroke-linejoin:miter;stroke-opacity:1" />
      <path
         sodipodi:nodetypes="cscccc"
         inkscape:connector-curvature="0"
         id="path5704"
         d="m 461.82711,687.93292 -6.47338,3.78141 c -0.8071,0.47147 0.88676,2.66026 0.88676,2.66026 l 9.39962,-3.01497 -0.35471,-1.0641 z"
         style="fill:#b3b3b3;fill-rule:evenodd;stroke:none;stroke-width:0.57300985px;stroke-linecap:butt;stroke-linejoin:miter;stroke-opacity:1" />
      <path
         inkscape:connector-curvature="0"
         id="path4442"
         d="m 341.44367,643.75871 5.35689,-3.72653 13.27578,1.16454 29.81227,7.91889 39.36151,11.87832 27.7161,8.15179 20.72884,10.71379 -12.11123,-9.78215 -8.3847,-5.3569 -25.85283,-7.91888 -12.80996,-3.95944 -33.07299,-9.31634 -25.1541,-7.45306 -13.27578,-0.93164 -5.5898,1.63036 -1.63036,3.95944 z"
         style="opacity:0.2;fill:#333333;fill-rule:evenodd;stroke:none;stroke-width:0.80000001px;stroke-linecap:butt;stroke-linejoin:miter;stroke-opacity:1;filter:url(#filter4468)" />
      <path
         inkscape:connector-curvature="0"
         id="path4472"
         d="m 468.37873,691.50493 c 0,0 3.49362,4.19235 5.12398,11.41251 1.63036,7.22016 0,2.32908 1.63036,7.45306 1.63036,5.12399 -1.86326,-0.46581 1.63036,5.12399 3.49363,5.5898 3.49363,5.5898 3.49363,5.5898 l -3.72654,-15.37195 -3.72653,-9.78216 z"
         style="fill:#cccccc;fill-rule:evenodd;stroke:none;stroke-width:0.80000001px;stroke-linecap:butt;stroke-linejoin:miter;stroke-opacity:1;filter:url(#filter4510)" />
      <path
         inkscape:connector-curvature="0"
         id="path4514"
         d="m 475.13307,691.50493 8.15179,29.34645 -3.95944,-28.64772 z"
         style="opacity:0.2;fill:#1a1a1a;fill-rule:evenodd;stroke:none;stroke-width:0.80000001px;stroke-linecap:butt;stroke-linejoin:miter;stroke-opacity:1;filter:url(#filter4640)" />
      <path
         inkscape:connector-curvature="0"
         id="path4644"
         d="m 380.57227,670.07736 -8.38469,6.75434 -3.49364,3.72653 3.26072,-0.46581 17.46813,-7.68598 z"
         style="fill:#cccccc;fill-rule:evenodd;stroke:none;stroke-width:0.80000001px;stroke-linecap:butt;stroke-linejoin:miter;stroke-opacity:1;filter:url(#filter4718)" />
      <path
         inkscape:connector-curvature="0"
         id="path4722"
         d="m 439.731,657.5003 20.72885,0.23292 24.22246,0.46581 28.41483,1.86327 11.1796,0 -11.64542,-1.16455 -19.33139,-1.16453 -18.16686,-0.93164 -21.42757,-0.69872 -19.09848,0 z"
         style="opacity:0.3;fill:#cccccc;fill-rule:evenodd;stroke:none;stroke-width:0.80000001px;stroke-linecap:butt;stroke-linejoin:miter;stroke-opacity:1;filter:url(#filter4752)" />
      <path
         inkscape:connector-curvature="0"
         id="path4756"
         d="m 429.48303,655.63704 12.80996,3.26071 -4.65817,-2.79489 z"
         style="opacity:0.3;fill:#504416;fill-rule:evenodd;stroke:none;stroke-width:0.80000001px;stroke-linecap:butt;stroke-linejoin:miter;stroke-opacity:1;filter:url(#filter4878)" />
      <path
         sodipodi:nodetypes="cccccc"
         inkscape:connector-curvature="0"
         id="path4882"
         d="m 487.71013,686.84676 3.02781,-1.16453 15.83776,1.39744 -10.01506,-2.09617 -11.87833,-0.93164 z"
         style="opacity:0.3;fill:#1a1a1a;fill-rule:evenodd;stroke:none;stroke-width:0.80000001px;stroke-linecap:butt;stroke-linejoin:miter;stroke-opacity:1;filter:url(#filter4960)" />
      <path
         inkscape:connector-curvature="0"
         id="path4964"
         d="m 457.89786,692.43656 3.95944,-3.26072 1.86326,1.86327 z"
         style="fill:#cccccc;fill-rule:evenodd;stroke:none;stroke-width:0.80000001px;stroke-linecap:butt;stroke-linejoin:miter;stroke-opacity:1;filter:url(#filter5046)" />
    </g>
  </g>
</svg>
